<svg width="24" height="30" viewBox="0 0 24 30" fill="none" xmlns="http://www.w3.org/2000/svg">
<path d="M17.6329 0.341614C15.9759 0.890614 14.4049 1.44561 13.2519 2.59161C12.0989 3.73761 11.4899 5.44861 11.6819 7.93061C11.7089 8.32561 12.1439 8.64161 12.5379 8.55461C14.2589 8.17461 15.9459 7.50861 17.1379 6.27261C18.3309 5.03561 18.9459 3.21561 18.5549 0.879614C18.4559 0.337614 18.0449 0.224614 17.6329 0.341614ZM7.43294 8.90961C8.29294 8.90961 9.15094 9.27261 10.0129 9.69561C10.8749 10.1176 11.7079 10.6316 12.7029 10.6316C13.8279 10.5266 14.8869 10.0456 15.7659 9.68461C16.7829 9.27061 17.8069 8.90961 18.6759 8.90961C20.2459 8.90961 21.9239 9.89561 22.9459 10.9446C21.0139 12.6246 19.3789 14.5986 19.3789 16.8326C19.3909 19.8546 21.3879 21.5076 23.4959 22.9676C23.0821 24.6743 22.2983 26.2693 21.1999 27.6396C20.0459 29.0536 18.6749 29.9216 17.6199 29.9216C16.7229 29.9216 15.9559 29.6336 15.1829 29.2976C14.4109 28.9606 13.6389 28.5436 12.7019 28.5436C11.7649 28.5436 10.9299 28.9476 10.0669 29.2866C9.20395 29.6256 8.32994 29.9216 7.43194 29.9216C7.03694 29.9216 6.30894 29.5946 5.52194 28.8666C4.73394 28.1386 3.87994 27.0526 3.11694 25.7446C1.59294 23.1276 0.405945 19.6066 0.405945 16.1436C0.339945 12.0166 3.85394 8.91661 7.43294 8.90961Z" fill="black"/>
</svg>
