<svg width="19" height="10" viewBox="0 0 19 10" fill="none" xmlns="http://www.w3.org/2000/svg">
<path fill-rule="evenodd" clip-rule="evenodd" d="M18.3285 0.156531C18.4384 0.267717 18.5 0.417725 18.5 0.574032C18.5 0.730339 18.4384 0.880346 18.3285 0.991531L9.90053 9.82053C9.85025 9.8769 9.78862 9.92201 9.71968 9.9529C9.65075 9.98378 9.57606 9.99975 9.50053 9.99975C9.42499 9.99975 9.35031 9.98378 9.28137 9.9529C9.21244 9.92201 9.15081 9.8769 9.10053 9.82053L0.672529 1.02053C0.563318 0.909076 0.50165 0.75957 0.500528 0.603531C0.501228 0.447408 0.56296 0.297749 0.672529 0.186531C0.722811 0.13016 0.784437 0.0850531 0.853373 0.0541679C0.922308 0.0232827 0.996992 0.00731672 1.07253 0.00731672C1.14807 0.00731673 1.22275 0.0232827 1.29169 0.0541679C1.36062 0.0850531 1.42225 0.13016 1.47253 0.186531L9.50153 8.53753L17.5305 0.154531C17.6397 0.0545911 17.7824 -0.000673816 17.9304 -0.00030335C18.0784 6.71158e-05 18.2209 0.0560457 18.3295 0.156531L18.3285 0.156531Z" fill="black"/>
</svg>
